<svg width="64" height="36" viewBox="0 0 64 36" fill="none" xmlns="http://www.w3.org/2000/svg">
<g clip-path="url(#clip0_311_1182)">
<path d="M60.3647 35.9999H3.5625C1.66406 35.9999 0.125 34.4784 0.125 32.6015V3.77032C0.125 1.89346 1.66406 0.371887 3.5625 0.371887H60.3647C62.2631 0.371887 63.8022 1.89346 63.8022 3.77032V32.6015C63.8022 34.4784 62.2631 35.9999 60.3647 35.9999Z" fill="#1EB7A2"/>
<path d="M59.0361 11.7885V24.5838C59.0361 25.2958 58.5307 25.907 57.8261 26.0552C57.2055 26.186 56.6215 26.4158 56.0927 26.7271C55.5781 27.0279 55.1162 27.4054 54.7211 27.8442L54.7172 27.848C54.1738 28.4524 53.7592 29.1726 53.5126 29.9667C53.3198 30.5895 52.7236 31.0046 52.0649 31.0046H11.8623C11.2036 31.0046 10.6074 30.5895 10.4145 29.9667C9.80712 28.0025 8.15625 26.4882 6.10107 26.0552C5.39648 25.907 4.89111 25.2958 4.89111 24.5838V11.7885C4.89111 11.0774 5.39648 10.4648 6.10107 10.3171C6.57226 10.2172 7.02246 10.0613 7.44336 9.85515C8.85839 9.16484 9.94628 7.91939 10.4145 6.40506C10.6074 5.78234 11.2036 5.36719 11.8623 5.36719H52.0649C52.7236 5.36719 53.3198 5.78234 53.5126 6.40506C54.1201 8.3693 55.7709 9.88363 57.8261 10.3171C58.5307 10.4648 59.0361 11.0774 59.0361 11.7885Z" fill="#65D196"/>
<path d="M59.0361 11.7885V24.5838C59.0361 25.2958 58.5307 25.907 57.8261 26.0552C57.2055 26.186 56.6215 26.4158 56.0927 26.7271C55.5781 27.0279 55.1162 27.4054 54.7211 27.8442L54.7172 27.848H14.4145C13.7559 27.848 13.1601 27.4329 12.9673 26.8101C12.3594 24.8459 10.7085 23.3301 8.65332 22.8981C7.94873 22.7489 7.44336 22.1378 7.44336 21.4258V9.85515C8.8584 9.16484 9.94629 7.91939 10.4145 6.40506C10.6074 5.78234 11.2036 5.36719 11.8623 5.36719H52.0649C52.7236 5.36719 53.3198 5.78234 53.5126 6.40506C54.1201 8.3693 55.7709 9.88363 57.8261 10.3171C58.5307 10.4648 59.0361 11.0774 59.0361 11.7885Z" fill="#7AF4AB"/>
<path d="M6.90381 5.50867C6.90381 6.19174 6.34375 6.74543 5.65283 6.74543C4.96191 6.74543 4.40186 6.19174 4.40186 5.50867C4.40186 4.82561 4.96191 4.27191 5.65283 4.27191C6.34375 4.27191 6.90381 4.82561 6.90381 5.50867Z" fill="#7AF4A9"/>
<path d="M59.5254 5.50867C59.5254 6.19174 58.9653 6.74543 58.2744 6.74543C57.5835 6.74543 57.0234 6.19174 57.0234 5.50867C57.0234 4.82561 57.5835 4.27191 58.2744 4.27191C58.9653 4.27191 59.5254 4.82561 59.5254 5.50867Z" fill="#7AF4A9"/>
<path d="M6.90381 30.8637C6.90381 31.5468 6.34375 32.1005 5.65283 32.1005C4.96191 32.1005 4.40186 31.5468 4.40186 30.8637C4.40186 30.1806 4.96191 29.627 5.65283 29.627C6.34375 29.627 6.90381 30.1806 6.90381 30.8637Z" fill="#7AF4A9"/>
<path d="M59.5254 30.8637C59.5254 31.5468 58.9653 32.1005 58.2744 32.1005C57.5835 32.1005 57.0234 31.5468 57.0234 30.8637C57.0234 30.1806 57.5835 29.627 58.2744 29.627C58.9653 29.627 59.5254 30.1806 59.5254 30.8637Z" fill="#7AF4A9"/>
<path d="M42.2007 18.1862C42.2007 23.7752 37.6177 28.3062 31.9639 28.3062C26.3105 28.3062 21.7275 23.7752 21.7275 18.1862C21.7275 12.5966 26.3105 8.06616 31.9639 8.06616C37.6177 8.06616 42.2007 12.5966 42.2007 18.1862Z" fill="#1A9C91"/>
<path d="M53.5518 16.9532H47.7773C47.2339 16.9532 46.7935 17.3892 46.7935 17.9264C46.7935 18.4637 47.2339 18.8996 47.7773 18.8996H53.5518C54.0957 18.8996 54.5361 18.4637 54.5361 17.9264C54.5361 17.3892 54.0957 16.9532 53.5518 16.9532Z" fill="#1A9C91"/>
<path d="M16.1499 17.4722H10.3755C9.83154 17.4722 9.39111 17.9081 9.39111 18.4454C9.39111 18.9826 9.83154 19.4185 10.3755 19.4185H16.1499C16.6934 19.4185 17.1338 18.9826 17.1338 18.4454C17.1338 17.9081 16.6934 17.4722 16.1499 17.4722Z" fill="#1A9C91"/>
<path d="M35.5962 20.7944C35.5962 16.4431 30.4917 17.5794 30.4917 15.3806C30.4917 14.5372 31.0913 14.1095 32.2739 14.1095C33.0854 14.1095 33.5288 14.3355 33.8525 14.5005C34.0547 14.6034 34.2295 14.6927 34.4297 14.6927C34.9795 14.6927 35.3164 14.0926 35.3164 13.6625C35.3164 12.8197 34.019 12.4832 33.0342 12.3727V10.7903C33.0342 10.2525 32.5937 9.81708 32.0498 9.81708C31.5063 9.81708 31.0654 10.2525 31.0654 10.7903V12.4475C29.4585 12.7965 28.5322 13.8846 28.5322 15.5032C28.5322 19.464 33.6367 18.1775 33.6367 20.917C33.6367 22.2209 32.6421 22.4946 31.8081 22.4946C30.0435 22.4946 29.8853 21.252 29.1553 21.252C28.6558 21.252 28.2534 21.8154 28.2534 22.2822C28.2534 23.014 29.3257 24.0345 31.0654 24.2831V25.6232C31.0654 26.1605 31.5063 26.5964 32.0498 26.5964C32.5937 26.5964 33.0342 26.1605 33.0342 25.6232V24.2126C34.6587 23.8332 35.5962 22.6153 35.5962 20.7944Z" fill="#7AF4A9"/>
</g>
<defs>
<clipPath id="clip0_311_1182">
<rect width="64" height="36" fill="white"/>
</clipPath>
</defs>
</svg>
