<svg width="18" height="17" viewBox="0 0 18 17" fill="none" xmlns="http://www.w3.org/2000/svg">
<path d="M15.0014 7.01849C14.5299 7.01849 14.1477 7.40072 14.1477 7.87213V14.0424C14.1477 14.4003 13.8565 14.6914 13.4986 14.6914H2.35642C1.99852 14.6914 1.7073 14.4003 1.7073 14.0424V2.90016C1.7073 2.54226 1.99852 2.25111 2.35642 2.25111H11.4966C11.968 2.25111 12.3503 1.86888 12.3503 1.39747C12.3503 0.926058 11.968 0.543823 11.4966 0.543823H2.35642C1.05705 0.543823 0 1.60087 0 2.90016V14.0423C0 15.3416 1.05705 16.3987 2.35642 16.3987H13.4986C14.798 16.3987 15.855 15.3416 15.855 14.0423V7.87213C15.855 7.40068 15.4728 7.01849 15.0014 7.01849Z" fill="#1E71A3"/>
<path d="M16.5416 0.251123L7.04789 9.78055L4.60796 7.33182C4.27518 6.99781 3.73473 6.99691 3.40072 7.32961C3.06671 7.66238 3.06573 8.2029 3.39851 8.53683L6.10994 11.258C6.36018 11.5094 6.69322 11.6478 7.04793 11.6478H7.04864C7.40362 11.6476 7.73681 11.5088 7.98607 11.258L17.7511 1.45614C18.0839 1.12213 18.0828 0.58157 17.7488 0.24891C17.4148 -0.0838619 16.8743 -0.0828119 16.5416 0.251123Z" fill="#1E71A3"/>
</svg>
