<svg width="59" height="40" viewBox="0 0 59 40" fill="none" xmlns="http://www.w3.org/2000/svg">
<path d="M55.0346 40H3.81607C1.71261 40 0 38.2874 0 36.1725V3.8276C0 1.72414 1.71261 0.0115356 3.81607 0.0115356H55.023C57.1379 0.0115356 58.8506 1.72414 58.8506 3.8276V36.1725C58.8506 38.2874 57.138 40 55.0346 40Z" fill="#505278"/>
<path d="M55.0346 0.0115356H29.4253V40H55.0345C57.1494 40 58.8506 38.2874 58.8506 36.184V3.8276C58.8507 1.72414 57.1381 0.0115356 55.0346 0.0115356Z" fill="#424566"/>
<path d="M30.7012 0.0114839C30.3103 11.8161 20.5862 21.2873 8.68966 21.2873C5.60916 21.2873 2.66667 20.6551 0 19.4943V14.3563C2.56322 15.8391 5.52877 16.6782 8.68966 16.6782C18.046 16.6782 25.7012 9.26435 26.0919 0H30.7011V0.0114839H30.7012Z" fill="#575982"/>
<path d="M29.4253 0.0115356V6.6897C30.1724 4.58624 30.6207 2.34487 30.7011 0.0115356H29.4253Z" fill="#505278"/>
<path d="M58.8503 23.3909V28.0576C56.0917 27.5288 53.402 27.2989 50.7353 27.5633C45.9193 28.0461 41.4479 30.299 36.6548 34.6553C35.8847 35.3565 35.1031 36.0806 34.3559 36.7818C33.2065 37.8508 32.0571 38.9312 30.8501 39.9887H23.4019C26.1605 38.1496 28.6317 35.8393 31.2179 33.4255C31.9881 32.7129 32.7697 31.9657 33.5628 31.253C39.126 26.207 44.4364 23.5748 50.2754 22.9886C53.1607 22.7012 56.0802 22.9311 58.8503 23.3909Z" fill="#505278"/>
<path d="M23.4023 40H29.4253V35.092C27.4599 36.8966 25.5173 38.5863 23.4023 40Z" fill="#575982"/>
<path d="M12.3222 19.4713H6.67845C5.81636 19.4713 5.11523 18.7702 5.11523 17.9081V14.1609C5.11523 13.2988 5.81636 12.5977 6.67845 12.5977H12.3222C13.1843 12.5977 13.8854 13.2988 13.8854 14.1609V17.9081C13.8739 18.7817 13.1842 19.4713 12.3222 19.4713Z" fill="#424566"/>
<path d="M12.322 19.3793H6.66679C5.86222 19.3793 5.20703 18.7242 5.20703 17.9196V14.1609C5.20703 13.3564 5.86222 12.7012 6.66679 12.7012H12.322C13.1266 12.7012 13.7817 13.3564 13.7817 14.1609V17.9196C13.7817 18.7242 13.1266 19.3793 12.322 19.3793Z" fill="#FEBD55"/>
<path d="M13.7817 16.1609V15.931H10.7932V14.9196L11.5633 14.1494H13.7817C13.7817 14.069 13.7703 13.9886 13.7588 13.9196H11.5059C11.4715 13.9196 11.4484 13.931 11.4254 13.954L10.6209 14.7586H9.60928V12.7126H9.3794V14.7586H8.3794L7.57482 13.954C7.55185 13.931 7.5173 13.9196 7.49434 13.9196H5.23C5.21852 13.9886 5.20703 14.069 5.20703 14.1494H7.4484L8.20704 14.9081V15.931H5.20703V16.1609H8.20704V17.1839L7.4484 17.9425H5.20703C5.20703 18.023 5.21852 18.1034 5.23 18.1724H7.49434C7.52879 18.1724 7.55185 18.1609 7.57482 18.138L8.3794 17.3334H9.3794V19.3793H9.60928V17.3334H10.6208L11.4253 18.138C11.4483 18.1609 11.4713 18.1724 11.5058 18.1724H13.7587C13.7702 18.1034 13.7817 18.023 13.7817 17.9425H11.5633L10.7931 17.1724V16.1609H13.7817ZM10.5633 17.1034H8.43692V14.977H10.5633V17.1034Z" fill="#B5613C"/>
<path d="M52.69 19.3103C52.6325 19.3103 52.5865 19.2989 52.5406 19.2759C52.3681 19.1954 52.2992 18.9885 52.3912 18.8161C53.2763 17.0575 53.2763 15.046 52.3912 13.2874C52.3107 13.1149 52.3797 12.9081 52.5406 12.8276C52.713 12.7471 52.9199 12.8161 53.0003 12.977C53.9889 14.9311 53.9889 17.1724 53.0003 19.1264C52.9313 19.2414 52.8164 19.3103 52.69 19.3103ZM51.506 18.6552C52.437 17 52.437 15.0919 51.506 13.4368C51.4141 13.2759 51.2071 13.2069 51.0348 13.3103C50.8739 13.4023 50.8049 13.6092 50.9084 13.7816C51.7244 15.2299 51.7244 16.885 50.9084 18.3218C50.8164 18.4827 50.8739 18.7011 51.0348 18.7931C51.0923 18.8275 51.1497 18.839 51.2072 18.839C51.3221 18.8276 51.437 18.7586 51.506 18.6552ZM50.0348 18.1839C50.9428 16.8621 50.9428 15.2184 50.0348 13.885C49.9313 13.7242 49.7129 13.6896 49.5521 13.7931C49.3912 13.8965 49.3566 14.1149 49.4601 14.2758C50.1958 15.3563 50.1958 16.7126 49.4601 17.7931C49.3566 17.9539 49.3911 18.1609 49.5521 18.2758C49.6096 18.3217 49.6785 18.3332 49.7475 18.3332C49.8623 18.3449 49.9658 18.2874 50.0348 18.1839ZM48.4831 17.7471C48.9888 17.2874 49.2647 16.6781 49.2647 16.046C49.2647 15.4139 48.9888 14.8046 48.4831 14.3449C48.3451 14.2185 48.1268 14.2185 48.0003 14.3679C47.8739 14.5058 47.8739 14.7242 48.0233 14.8506C48.3796 15.1839 48.575 15.6092 48.575 16.046C48.575 16.4828 48.3796 16.9081 48.0233 17.2414C47.8854 17.3679 47.8739 17.5863 48.0003 17.7242C48.0693 17.7932 48.1612 17.8391 48.2532 17.8391C48.3336 17.8391 48.4141 17.8047 48.4831 17.7471Z" fill="#CAD4FF"/>
<path d="M28.9541 34.2069H5.55185C5.35642 34.2069 5.20703 34.0575 5.20703 33.8621C5.20703 33.6667 5.35642 33.5173 5.55185 33.5173H28.9541C29.1496 33.5173 29.299 33.6667 29.299 33.8621C29.299 34.0575 29.1381 34.2069 28.9541 34.2069Z" fill="#E6EAFF"/>
<path d="M53.3912 34.2069H48.9544C48.7589 34.2069 48.6096 34.0575 48.6096 33.8621C48.6096 33.6667 48.7589 33.5173 48.9544 33.5173H53.3912C53.5866 33.5173 53.736 33.6667 53.736 33.8621C53.736 34.0575 53.5751 34.2069 53.3912 34.2069ZM47.0693 33.8621C47.0693 33.6667 46.9199 33.5173 46.7245 33.5173H42.2877C42.0923 33.5173 41.9429 33.6667 41.9429 33.8621C41.9429 34.0575 42.0923 34.2069 42.2877 34.2069H46.7245C46.9199 34.2069 47.0693 34.046 47.0693 33.8621Z" fill="#CAD4FF"/>
<path d="M5.55185 7.85051C5.35642 7.85051 5.20703 7.70111 5.20703 7.50569V6.14938C5.20703 5.95396 5.35642 5.80457 5.55185 5.80457C5.74728 5.80457 5.89667 5.95396 5.89667 6.14938V7.49421C5.89667 7.68963 5.74728 7.85051 5.55185 7.85051ZM7.77025 7.50569V6.14938C7.77025 5.95396 7.62086 5.80457 7.42543 5.80457C7.23 5.80457 7.08061 5.95396 7.08061 6.14938V7.49421C7.08061 7.68963 7.23 7.83902 7.42543 7.83902C7.62076 7.85051 7.77025 7.68963 7.77025 7.50569ZM9.65531 7.50569V6.14938C9.65531 5.95396 9.50592 5.80457 9.3105 5.80457C9.11507 5.80457 8.96568 5.95396 8.96568 6.14938V7.49421C8.96568 7.68963 9.11507 7.83902 9.3105 7.83902C9.49434 7.85051 9.65531 7.68963 9.65531 7.50569ZM11.5289 7.50569V6.14938C11.5289 5.95396 11.3795 5.80457 11.1841 5.80457C10.9887 5.80457 10.8393 5.95396 10.8393 6.14938V7.49421C10.8393 7.68963 10.9887 7.83902 11.1841 7.83902C11.3794 7.85051 11.5289 7.68963 11.5289 7.50569Z" fill="#E6EAFF"/>
<path d="M6.26459 28.3564H6.20707C5.63238 28.3564 5.16113 27.8851 5.16113 27.3104V25.6782C5.16113 25.1035 5.63238 24.6323 6.20707 24.6323H6.26459C6.83929 24.6323 7.31053 25.1035 7.31053 25.6782V27.3104C7.31063 27.885 6.85087 28.3564 6.26459 28.3564ZM6.20717 25.3218C6.01174 25.3218 5.85087 25.4827 5.85087 25.6781V27.3103C5.85087 27.5057 6.01174 27.6666 6.20717 27.6666H6.26469C6.46011 27.6666 6.62099 27.5057 6.62099 27.3103V25.6781C6.62099 25.4827 6.46011 25.3218 6.26469 25.3218H6.20717Z" fill="#E6EAFF"/>
<path d="M9.05756 28.3564H9.00004C8.42534 28.3564 7.9541 27.8851 7.9541 27.3104V25.6782C7.9541 25.1035 8.42534 24.6323 9.00004 24.6323H9.05756C9.63226 24.6323 10.1035 25.1035 10.1035 25.6782V27.3104C10.1036 27.885 9.64384 28.3564 9.05756 28.3564ZM9.00014 25.3218C8.80471 25.3218 8.64384 25.4827 8.64384 25.6781V27.3103C8.64384 27.5057 8.80471 27.6666 9.00014 27.6666H9.05766C9.25308 27.6666 9.41396 27.5057 9.41396 27.3103V25.6781C9.41396 25.4827 9.25308 25.3218 9.05766 25.3218H9.00014Z" fill="#E6EAFF"/>
<path d="M11.8505 28.3564H11.793C11.2183 28.3564 10.7471 27.8851 10.7471 27.3104V25.6782C10.7471 25.1035 11.2183 24.6323 11.793 24.6323H11.8505C12.4252 24.6323 12.8965 25.1035 12.8965 25.6782V27.3104C12.8965 27.885 12.4252 28.3564 11.8505 28.3564ZM11.793 25.3218C11.5976 25.3218 11.4367 25.4827 11.4367 25.6781V27.3103C11.4367 27.5057 11.5976 27.6666 11.793 27.6666H11.8505C12.046 27.6666 12.2068 27.5057 12.2068 27.3103V25.6781C12.2068 25.4827 12.046 25.3218 11.8505 25.3218H11.793Z" fill="#E6EAFF"/>
<path d="M14.644 28.3564H14.5865C14.0118 28.3564 13.5405 27.8851 13.5405 27.3104V25.6782C13.5405 25.1035 14.0118 24.6323 14.5865 24.6323H14.644C15.2187 24.6323 15.6899 25.1035 15.6899 25.6782V27.3104C15.6899 27.885 15.2187 28.3564 14.644 28.3564ZM14.5865 25.3218C14.391 25.3218 14.2302 25.4827 14.2302 25.6781V27.3103C14.2302 27.5057 14.391 27.6666 14.5865 27.6666H14.644C14.8394 27.6666 15.0003 27.5057 15.0003 27.3103V25.6781C15.0003 25.4827 14.8394 25.3218 14.644 25.3218H14.5865Z" fill="#E6EAFF"/>
<path d="M18.9316 28.3564H18.8741C18.2994 28.3564 17.8281 27.8851 17.8281 27.3104V25.6782C17.8281 25.1035 18.2994 24.6323 18.8741 24.6323H18.9316C19.5063 24.6323 19.9775 25.1035 19.9775 25.6782V27.3104C19.9776 27.885 19.5063 28.3564 18.9316 28.3564ZM18.8742 25.3218C18.6787 25.3218 18.5179 25.4827 18.5179 25.6781V27.3103C18.5179 27.5057 18.6787 27.6666 18.8742 27.6666H18.9317C19.1271 27.6666 19.288 27.5057 19.288 27.3103V25.6781C19.288 25.4827 19.1271 25.3218 18.9317 25.3218H18.8742Z" fill="#E6EAFF"/>
<path d="M21.7246 28.3564H21.667C21.0923 28.3564 20.6211 27.8851 20.6211 27.3104V25.6782C20.6211 25.1035 21.0923 24.6323 21.667 24.6323H21.7246C22.2992 24.6323 22.7705 25.1035 22.7705 25.6782V27.3104C22.7706 27.885 22.2992 28.3564 21.7246 28.3564ZM21.6671 25.3218C21.4717 25.3218 21.3108 25.4827 21.3108 25.6781V27.3103C21.3108 27.5057 21.4717 27.6666 21.6671 27.6666H21.7246C21.9201 27.6666 22.081 27.5057 22.081 27.3103V25.6781C22.081 25.4827 21.9201 25.3218 21.7246 25.3218H21.6671Z" fill="#E6EAFF"/>
<path d="M24.5175 28.3564H24.46C23.8853 28.3564 23.4141 27.8851 23.4141 27.3104V25.6782C23.4141 25.1035 23.8853 24.6323 24.46 24.6323H24.5175C25.0922 24.6323 25.5635 25.1035 25.5635 25.6782V27.3104C25.5636 27.885 25.0923 28.3564 24.5175 28.3564ZM24.4601 25.3218C24.2647 25.3218 24.1038 25.4827 24.1038 25.6781V27.3103C24.1038 27.5057 24.2647 27.6666 24.4601 27.6666H24.5176C24.713 27.6666 24.8739 27.5057 24.8739 27.3103V25.6781C24.8739 25.4827 24.713 25.3218 24.5176 25.3218H24.4601Z" fill="#E6EAFF"/>
<path d="M27.3105 28.3564H27.253C26.6783 28.3564 26.207 27.8851 26.207 27.3104V25.6782C26.207 25.1035 26.6783 24.6323 27.253 24.6323H27.3105C27.8852 24.6323 28.3564 25.1035 28.3564 25.6782V27.3104C28.3565 27.885 27.8853 28.3564 27.3105 28.3564ZM27.2531 25.3218C27.0576 25.3218 26.8968 25.4827 26.8968 25.6781V27.3103C26.8968 27.5057 27.0576 27.6666 27.2531 27.6666H27.3106C27.506 27.6666 27.6669 27.5057 27.6669 27.3103V25.6781C27.6669 25.4827 27.506 25.3218 27.3106 25.3218H27.2531Z" fill="#E6EAFF"/>
<path d="M31.5981 28.3564H31.5406C30.9659 28.3564 30.4946 27.8851 30.4946 27.3104V25.6782C30.4946 25.1035 30.9659 24.6323 31.5406 24.6323H31.5981C32.1728 24.6323 32.644 25.1035 32.644 25.6782V27.3104C32.644 27.885 32.1728 28.3564 31.5981 28.3564ZM31.5406 25.3218C31.3451 25.3218 31.1843 25.4827 31.1843 25.6781V27.3103C31.1843 27.5057 31.3451 27.6666 31.5406 27.6666H31.5981C31.7935 27.6666 31.9544 27.5057 31.9544 27.3103V25.6781C31.9544 25.4827 31.7935 25.3218 31.5981 25.3218H31.5406Z" fill="#CAD4FF"/>
<path d="M34.391 28.3564H34.3335C33.7588 28.3564 33.2876 27.8851 33.2876 27.3104V25.6782C33.2876 25.1035 33.7588 24.6323 34.3335 24.6323H34.391C34.9657 24.6323 35.4369 25.1035 35.4369 25.6782V27.3104C35.4369 27.885 34.9657 28.3564 34.391 28.3564ZM34.3335 25.3218C34.1381 25.3218 33.9772 25.4827 33.9772 25.6781V27.3103C33.9772 27.5057 34.1381 27.6666 34.3335 27.6666H34.391C34.5864 27.6666 34.7473 27.5057 34.7473 27.3103V25.6781C34.7473 25.4827 34.5864 25.3218 34.391 25.3218H34.3335Z" fill="#CAD4FF"/>
<path d="M37.1845 28.3564H37.127C36.5523 28.3564 36.0811 27.8851 36.0811 27.3104V25.6782C36.0811 25.1035 36.5523 24.6323 37.127 24.6323H37.1845C37.7592 24.6323 38.2305 25.1035 38.2305 25.6782V27.3104C38.2305 27.885 37.7592 28.3564 37.1845 28.3564ZM37.1271 25.3218C36.9317 25.3218 36.7708 25.4827 36.7708 25.6781V27.3103C36.7708 27.5057 36.9317 27.6666 37.1271 27.6666H37.1846C37.38 27.6666 37.5409 27.5057 37.5409 27.3103V25.6781C37.5409 25.4827 37.38 25.3218 37.1846 25.3218H37.1271Z" fill="#CAD4FF"/>
<path d="M39.9775 28.3564H39.92C39.3453 28.3564 38.874 27.8851 38.874 27.3104V25.6782C38.874 25.1035 39.3453 24.6323 39.92 24.6323H39.9775C40.5522 24.6323 41.0234 25.1035 41.0234 25.6782V27.3104C41.0235 27.885 40.5522 28.3564 39.9775 28.3564ZM39.9201 25.3218C39.7246 25.3218 39.5638 25.4827 39.5638 25.6781V27.3103C39.5638 27.5057 39.7246 27.6666 39.9201 27.6666H39.9776C40.173 27.6666 40.3339 27.5057 40.3339 27.3103V25.6781C40.3339 25.4827 40.173 25.3218 39.9776 25.3218H39.9201Z" fill="#CAD4FF"/>
<path d="M44.2646 28.3564H44.2071C43.6324 28.3564 43.1611 27.8851 43.1611 27.3104V25.6782C43.1611 25.1035 43.6324 24.6323 44.2071 24.6323H44.2646C44.8393 24.6323 45.3105 25.1035 45.3105 25.6782V27.3104C45.3105 27.885 44.8393 28.3564 44.2646 28.3564ZM44.2071 25.3218C44.0116 25.3218 43.8508 25.4827 43.8508 25.6781V27.3103C43.8508 27.5057 44.0116 27.6666 44.2071 27.6666H44.2646C44.46 27.6666 44.6209 27.5057 44.6209 27.3103V25.6781C44.6209 25.4827 44.46 25.3218 44.2646 25.3218H44.2071Z" fill="#CAD4FF"/>
<path d="M47.058 28.3564H47.0005C46.4258 28.3564 45.9546 27.8851 45.9546 27.3104V25.6782C45.9546 25.1035 46.4258 24.6323 47.0005 24.6323H47.058C47.6326 24.6323 48.1039 25.1035 48.1039 25.6782V27.3104C48.1039 27.885 47.6326 28.3564 47.058 28.3564ZM47.0004 25.3218C46.805 25.3218 46.6441 25.4827 46.6441 25.6781V27.3103C46.6441 27.5057 46.805 27.6666 47.0004 27.6666H47.0579C47.2533 27.6666 47.4142 27.5057 47.4142 27.3103V25.6781C47.4142 25.4827 47.2533 25.3218 47.0579 25.3218H47.0004Z" fill="#CAD4FF"/>
<path d="M49.851 28.3564H49.7935C49.2188 28.3564 48.7476 27.8851 48.7476 27.3104V25.6782C48.7476 25.1035 49.2188 24.6323 49.7935 24.6323H49.851C50.4257 24.6323 50.897 25.1035 50.897 25.6782V27.3104C50.897 27.885 50.4257 28.3564 49.851 28.3564ZM49.7936 25.3218C49.5982 25.3218 49.4373 25.4827 49.4373 25.6781V27.3103C49.4373 27.5057 49.5982 27.6666 49.7936 27.6666H49.8511C50.0465 27.6666 50.2074 27.5057 50.2074 27.3103V25.6781C50.2074 25.4827 50.0465 25.3218 49.8511 25.3218H49.7936Z" fill="#CAD4FF"/>
<path d="M52.644 28.3564H52.5865C52.0118 28.3564 51.5405 27.8851 51.5405 27.3104V25.6782C51.5405 25.1035 52.0118 24.6323 52.5865 24.6323H52.644C53.2187 24.6323 53.6899 25.1035 53.6899 25.6782V27.3104C53.69 27.885 53.2187 28.3564 52.644 28.3564ZM52.5866 25.3218C52.3911 25.3218 52.2303 25.4827 52.2303 25.6781V27.3103C52.2303 27.5057 52.3911 27.6666 52.5866 27.6666H52.6441C52.8395 27.6666 53.0004 27.5057 53.0004 27.3103V25.6781C53.0004 25.4827 52.8395 25.3218 52.6441 25.3218H52.5866Z" fill="#CAD4FF"/>
</svg>
