<svg width="16" height="15" viewBox="0 0 16 15" fill="none" xmlns="http://www.w3.org/2000/svg">
<path d="M14.2422 1.17188H13.5391V0H12.3672V1.17188H4.63281V0H3.46094V1.17188H2.75781C1.78855 1.17188 1 1.96043 1 2.92969V13.2422C1 14.2114 1.78855 15 2.75781 15H14.2422C15.2114 15 16 14.2114 16 13.2422V2.92969C16 1.96043 15.2114 1.17188 14.2422 1.17188ZM14.8281 13.2422C14.8281 13.5653 14.5653 13.8281 14.2422 13.8281H2.75781C2.43473 13.8281 2.17188 13.5653 2.17188 13.2422V5.50781H14.8281V13.2422ZM14.8281 4.33594H2.17188V2.92969C2.17188 2.6066 2.43473 2.34375 2.75781 2.34375H3.46094V3.51562H4.63281V2.34375H12.3672V3.51562H13.5391V2.34375H14.2422C14.5653 2.34375 14.8281 2.6066 14.8281 2.92969V4.33594Z" fill="#1E71A3"/>
<path d="M1.39844 6.73828H0.226562V7.91016H1.39844V6.73828Z" fill="#1E71A3"/>
<path d="M3.74219 6.73828H2.57031V7.91016H3.74219V6.73828Z" fill="#1E71A3"/>
<path d="M6.08594 6.73828H4.91406V7.91016H6.08594V6.73828Z" fill="#1E71A3"/>
<path d="M8.42969 6.73828H7.25781V7.91016H8.42969V6.73828Z" fill="#1E71A3"/>
<path d="M10.7734 6.73828H9.60156V7.91016H10.7734V6.73828Z" fill="#1E71A3"/>
<path d="M1.39844 9.08203H0.226562V10.2539H1.39844V9.08203Z" fill="#1E71A3"/>
<path d="M3.74219 9.08203H2.57031V10.2539H3.74219V9.08203Z" fill="#1E71A3"/>
<path d="M6.08594 9.08203H4.91406V10.2539H6.08594V9.08203Z" fill="#1E71A3"/>
<path d="M8.42969 9.08203H7.25781V10.2539H8.42969V9.08203Z" fill="#1E71A3"/>
<path d="M1.39844 11.4258H0.226562V12.5977H1.39844V11.4258Z" fill="#1E71A3"/>
<path d="M3.74219 11.4258H2.57031V12.5977H3.74219V11.4258Z" fill="#1E71A3"/>
<path d="M6.08594 11.4258H4.91406V12.5977H6.08594V11.4258Z" fill="#1E71A3"/>
<path d="M8.42969 11.4258H7.25781V12.5977H8.42969V11.4258Z" fill="#1E71A3"/>
<path d="M10.7734 9.08203H9.60156V10.2539H10.7734V9.08203Z" fill="#1E71A3"/>
</svg>
