<svg width="16" height="16" viewBox="0 0 16 16" fill="none" xmlns="http://www.w3.org/2000/svg">
<path d="M10.666 10.3333C10.5407 10.3333 10.4133 10.298 10.3007 10.224L7.634 8.472C7.44667 8.348 7.33333 8.13933 7.33333 7.91467V4.66667C7.33333 4.298 7.63133 4 8 4C8.36867 4 8.66667 4.298 8.66667 4.66667V7.55533L11.0327 9.10933C11.3407 9.312 11.426 9.72533 11.224 10.0327C11.096 10.228 10.8827 10.3333 10.666 10.3333ZM8.476 14.65C8.31867 14.6613 8.16 14.6667 8 14.6667C4.324 14.6667 1.33333 11.676 1.33333 8C1.33333 4.324 4.324 1.33333 8 1.33333C10.1007 1.33333 12.0747 2.34133 13.3253 4H11.3333C10.9647 4 10.6667 4.298 10.6667 4.66667C10.6667 5.03533 10.9647 5.33333 11.3333 5.33333H14C14.7353 5.33333 15.3333 4.73533 15.3333 4V1.33333C15.3333 0.964667 15.0353 0.666667 14.6667 0.666667C14.298 0.666667 14 0.964667 14 1.33333V2.736C12.4953 1.02867 10.3153 0 8 0C3.58867 0 0 3.58867 0 8C0 12.4113 3.58867 16 8 16C8.192 16 8.382 15.9927 8.57067 15.9793C8.938 15.9533 9.21467 15.634 9.188 15.2673C9.162 14.9007 8.84667 14.6173 8.476 14.65ZM15.3333 7.33333C14.9647 7.33333 14.6667 7.63133 14.6667 8C14.6667 8.30333 14.646 8.60867 14.6053 8.90667C14.556 9.272 14.812 9.608 15.176 9.65733C15.2067 9.66133 15.2367 9.66333 15.2667 9.66333C15.5953 9.66333 15.8813 9.42067 15.9267 9.08667C15.9747 8.72933 15.9993 8.36333 15.9993 8C15.9993 7.63133 15.702 7.33333 15.3333 7.33333ZM14.758 10.9307C14.4353 10.752 14.0293 10.872 13.8533 11.1947C13.7087 11.4587 13.544 11.716 13.3633 11.96C13.1447 12.256 13.208 12.6733 13.5033 12.8927C13.6233 12.9807 13.762 13.0227 13.8993 13.0227C14.104 13.0227 14.3053 12.9287 14.4367 12.7527C14.652 12.46 14.85 12.1513 15.0233 11.8347C15.2007 11.512 15.082 11.1067 14.7593 10.93L14.758 10.9307ZM11.604 13.6107C11.3487 13.7747 11.082 13.922 10.81 14.048C10.476 14.2033 10.3307 14.5993 10.486 14.9333C10.5993 15.1767 10.8393 15.3193 11.0913 15.3193C11.1853 15.3193 11.2807 15.3 11.3713 15.2573C11.6987 15.1047 12.02 14.9287 12.326 14.7313C12.636 14.532 12.7253 14.12 12.526 13.81C12.3267 13.5013 11.914 13.412 11.6047 13.61L11.604 13.6107Z" fill="#1E71A3"/>
</svg>
