<svg width="15" height="15" viewBox="0 0 15 15" fill="none" xmlns="http://www.w3.org/2000/svg">
<path d="M7.5 15C5.49668 15 3.61327 14.2199 2.19668 12.8033C0.780147 11.3867 0 9.50332 0 7.5C0 5.49668 0.780147 3.61327 2.19668 2.19668C3.61327 0.780147 5.49668 0 7.5 0C9.50332 0 11.3867 0.780147 12.8033 2.19668C14.2199 3.61327 15 5.49668 15 7.5C15 9.50332 14.2199 11.3867 12.8033 12.8033C11.3867 14.2199 9.50332 15 7.5 15ZM7.5 1.17188C4.01065 1.17188 1.17188 4.01065 1.17188 7.5C1.17188 10.9893 4.01065 13.8281 7.5 13.8281C10.9893 13.8281 13.8281 10.9893 13.8281 7.5C13.8281 4.01065 10.9893 1.17188 7.5 1.17188ZM7.4707 8.05664C5.91987 8.05664 4.6582 6.79497 4.6582 5.24414C4.6582 3.69331 5.91987 2.43164 7.4707 2.43164C9.02153 2.43164 10.2832 3.69331 10.2832 5.24414C10.2832 6.79497 9.02153 8.05664 7.4707 8.05664ZM7.4707 3.60352C6.56604 3.60352 5.83008 4.33951 5.83008 5.24414C5.83008 6.14877 6.56604 6.88477 7.4707 6.88477C8.37536 6.88477 9.11133 6.14877 9.11133 5.24414C9.11133 4.33951 8.37536 3.60352 7.4707 3.60352ZM11.183 11.4689C11.4333 11.2639 11.47 10.8947 11.265 10.6443C10.4365 9.63284 9.21223 9.05273 7.9062 9.05273H7.21099C5.90496 9.05273 4.68073 9.63284 3.85222 10.6443C3.64717 10.8947 3.68388 11.2639 3.93425 11.4689C4.18459 11.674 4.55376 11.6372 4.75884 11.3869C5.36382 10.6482 6.25761 10.2246 7.21099 10.2246H7.9062C8.85958 10.2246 9.75337 10.6482 10.3584 11.3869C10.4742 11.5283 10.6424 11.6016 10.812 11.6016C10.9426 11.6016 11.0741 11.5581 11.183 11.4689Z" fill="#1E71A3"/>
</svg>
