<svg width="16" height="17" viewBox="0 0 16 17" fill="none" xmlns="http://www.w3.org/2000/svg">
<path d="M15.0014 7.01849C14.5299 7.01849 14.1477 7.40072 14.1477 7.87213V14.0424C14.1477 14.4003 13.8565 14.6914 13.4986 14.6914H2.35642C1.99852 14.6914 1.7073 14.4003 1.7073 14.0424V2.90016C1.7073 2.54226 1.99852 2.25111 2.35642 2.25111H11.4966C11.968 2.25111 12.3503 1.86888 12.3503 1.39747C12.3503 0.926058 11.968 0.543823 11.4966 0.543823H2.35642C1.05705 0.543823 0 1.60087 0 2.90016V14.0423C0 15.3416 1.05705 16.3987 2.35642 16.3987H13.4986C14.798 16.3987 15.855 15.3416 15.855 14.0423V7.87213C15.855 7.40068 15.4728 7.01849 15.0014 7.01849Z" fill="#1E71A3"/>
</svg>
