<?xml version="1.0" encoding="UTF-8"?>
<!DOCTYPE svg PUBLIC "-//W3C//DTD SVG 1.1//EN" "http://www.w3.org/Graphics/SVG/1.1/DTD/svg11.dtd">
<svg xmlns="http://www.w3.org/2000/svg" version="1.1" width="425px" height="425px" style="shape-rendering:geometricPrecision; text-rendering:geometricPrecision; image-rendering:optimizeQuality; fill-rule:evenodd; clip-rule:evenodd" xmlns:xlink="http://www.w3.org/1999/xlink">
<g><path style="opacity:0.988" fill="#c1f3da" d="M 193.5,6.5 C 277.777,2.55379 342.944,35.2205 389,104.5C 424.331,170.085 426.664,236.752 396,304.5C 364.849,362.998 317.016,399.498 252.5,414C 191.875,424.087 136.875,411.421 87.5,376C 42.7971,339.791 16.2971,292.958 8,235.5C 1.62337,160.301 26.79,98.4674 83.5,50C 116.294,25.7892 152.961,11.2892 193.5,6.5 Z"/></g>
<g><path style="opacity:1" fill="#8ee9bf" d="M 199.5,41.5 C 269.747,40.1965 323.58,68.8631 361,127.5C 384.056,170.044 389.056,214.711 376,261.5C 356.318,319.183 317.484,357.349 259.5,376C 198.791,391.851 144.791,379.518 97.5,339C 55.8939,299.212 37.7272,250.379 43,192.5C 51.1405,134.67 80.3072,91.17 130.5,62C 152.19,50.4728 175.19,43.6395 199.5,41.5 Z"/></g>
<g><path style="opacity:1" fill="#37cc92" d="M 197.5,78.5 C 252.302,75.653 295.136,96.653 326,141.5C 351.905,188.451 351.905,235.451 326,282.5C 290.158,334.574 240.992,354.408 178.5,342C 142.59,331.756 115.09,310.589 96,278.5C 78.9085,246.591 74.5751,212.924 83,177.5C 101.087,120.892 139.253,87.8916 197.5,78.5 Z"/></g>
<g><path style="opacity:1" fill="#f9fcfb" d="M 284.5,136.5 C 287.764,137.324 291.098,137.658 294.5,137.5C 298.089,138.092 300.422,140.092 301.5,143.5C 301.273,145.933 302.273,147.599 304.5,148.5C 304.733,153.034 303.9,157.368 302,161.5C 298.951,165.043 296.118,168.709 293.5,172.5C 292.833,172.5 292.5,172.833 292.5,173.5C 278.795,188.573 265.795,204.24 253.5,220.5C 250.119,222.88 247.453,225.88 245.5,229.5C 241.487,233.515 237.821,237.848 234.5,242.5C 232.453,244.55 230.786,246.883 229.5,249.5C 225.216,252.752 221.882,256.752 219.5,261.5C 216.119,263.88 213.453,266.88 211.5,270.5C 208.608,273.271 205.942,276.271 203.5,279.5C 198.324,281.184 192.991,281.85 187.5,281.5C 183.233,278.573 179.233,275.24 175.5,271.5C 171.873,266.206 167.54,261.539 162.5,257.5C 160.628,252.957 157.628,249.29 153.5,246.5C 148.139,240.807 142.805,235.14 137.5,229.5C 136.92,227.251 135.587,225.585 133.5,224.5C 131.5,221.833 129.167,219.5 126.5,217.5C 124.189,214.337 122.022,211.003 120,207.5C 118.13,192.202 124.963,185.202 140.5,186.5C 141.975,188.41 143.975,189.576 146.5,190C 147.998,192.664 149.998,194.83 152.5,196.5C 154.833,199.167 157.167,201.833 159.5,204.5C 162.529,207.859 165.529,211.192 168.5,214.5C 171.123,216.962 173.456,219.629 175.5,222.5C 175.833,225.5 177.5,227.167 180.5,227.5C 183.708,231.395 187.041,235.229 190.5,239C 191.833,239.667 193.167,239.667 194.5,239C 195.386,237.385 196.386,235.885 197.5,234.5C 198.5,233.833 199.5,233.167 200.5,232.5C 203.19,230.807 205.19,228.473 206.5,225.5C 206.5,225.167 206.5,224.833 206.5,224.5C 209.5,223.5 211.5,221.5 212.5,218.5C 213.781,215.553 215.781,213.219 218.5,211.5C 220.914,210.089 222.581,208.089 223.5,205.5C 227.753,198.91 232.753,192.91 238.5,187.5C 240.914,186.089 242.581,184.089 243.5,181.5C 251.11,170.891 259.443,160.891 268.5,151.5C 271.687,149.656 273.687,146.989 274.5,143.5C 276.744,139.587 280.077,137.253 284.5,136.5 Z"/></g>
<g><path style="opacity:1" fill="#ccf3e5" d="M 284.5,136.5 C 285.622,135.844 286.955,135.511 288.5,135.5C 290.883,135.361 292.883,136.028 294.5,137.5C 291.098,137.658 287.764,137.324 284.5,136.5 Z"/></g>
<g><path style="opacity:1" fill="#c7f5e6" d="M 301.5,143.5 C 303.25,144.659 304.25,146.326 304.5,148.5C 302.273,147.599 301.273,145.933 301.5,143.5 Z"/></g>
<g><path style="opacity:1" fill="#c8f1e3" d="M 274.5,143.5 C 273.687,146.989 271.687,149.656 268.5,151.5C 270.122,148.545 272.122,145.878 274.5,143.5 Z"/></g>
<g><path style="opacity:1" fill="#47bc90" d="M 304.5,148.5 C 305.844,152.962 305.51,157.462 303.5,162C 301.224,164.04 299.557,166.54 298.5,169.5C 297.06,170.952 295.394,171.952 293.5,172.5C 296.118,168.709 298.951,165.043 302,161.5C 303.9,157.368 304.733,153.034 304.5,148.5 Z"/></g>
<g><path style="opacity:1" fill="#c6f3e7" d="M 243.5,181.5 C 242.581,184.089 240.914,186.089 238.5,187.5C 239.419,184.911 241.086,182.911 243.5,181.5 Z"/></g>
<g><path style="opacity:1" fill="#51c399" d="M 140.5,186.5 C 146.615,187.281 150.615,190.614 152.5,196.5C 149.998,194.83 147.998,192.664 146.5,190C 143.975,189.576 141.975,188.41 140.5,186.5 Z"/></g>
<g><path style="opacity:1" fill="#44bd93" d="M 159.5,204.5 C 162.167,205.833 164.833,207.167 167.5,208.5C 167.833,210.5 168.167,212.5 168.5,214.5C 165.529,211.192 162.529,207.859 159.5,204.5 Z"/></g>
<g><path style="opacity:1" fill="#c2f1e5" d="M 223.5,205.5 C 222.581,208.089 220.914,210.089 218.5,211.5C 218.5,211.167 218.5,210.833 218.5,210.5C 219.833,208.5 221.5,206.833 223.5,205.5 Z"/></g>
<g><path style="opacity:1" fill="#45bd92" d="M 292.5,173.5 C 291.85,175.435 291.517,177.435 291.5,179.5C 290.178,179.33 289.011,179.663 288,180.5C 281.747,189.709 274.747,198.043 267,205.5C 264.464,207.962 262.964,210.962 262.5,214.5C 259.981,217.257 256.981,219.257 253.5,220.5C 265.795,204.24 278.795,188.573 292.5,173.5 Z"/></g>
<g><path style="opacity:1" fill="#43c299" d="M 218.5,210.5 C 218.5,210.833 218.5,211.167 218.5,211.5C 215.781,213.219 213.781,215.553 212.5,218.5C 211.167,219.5 209.833,220.5 208.5,221.5C 209.741,215.925 213.075,212.259 218.5,210.5 Z"/></g>
<g><path style="opacity:1" fill="#4abc92" d="M 126.5,217.5 C 129.167,219.5 131.5,221.833 133.5,224.5C 129.833,223.5 127.5,221.167 126.5,217.5 Z"/></g>
<g><path style="opacity:1" fill="#bdf0e4" d="M 212.5,218.5 C 211.5,221.5 209.5,223.5 206.5,224.5C 207.167,223.5 207.833,222.5 208.5,221.5C 209.833,220.5 211.167,219.5 212.5,218.5 Z"/></g>
<g><path style="opacity:1" fill="#51be97" d="M 253.5,220.5 C 253.649,221.552 253.483,222.552 253,223.5C 251.151,226.377 248.651,228.377 245.5,229.5C 247.453,225.88 250.119,222.88 253.5,220.5 Z"/></g>
<g><path style="opacity:1" fill="#62c49f" d="M 133.5,224.5 C 135.587,225.585 136.92,227.251 137.5,229.5C 135.413,228.415 134.08,226.749 133.5,224.5 Z"/></g>
<g><path style="opacity:1" fill="#c7f3e7" d="M 175.5,222.5 C 176.5,223.167 177.5,223.833 178.5,224.5C 179.167,225.5 179.833,226.5 180.5,227.5C 177.5,227.167 175.833,225.5 175.5,222.5 Z"/></g>
<g><path style="opacity:1" fill="#c0f1e4" d="M 206.5,225.5 C 205.19,228.473 203.19,230.807 200.5,232.5C 201.781,229.553 203.781,227.219 206.5,225.5 Z"/></g>
<g><path style="opacity:1" fill="#46c39a" d="M 178.5,224.5 C 182.558,228.053 186.558,231.886 190.5,236C 193.095,236.6 195.429,236.1 197.5,234.5C 196.386,235.885 195.386,237.385 194.5,239C 193.167,239.667 191.833,239.667 190.5,239C 187.041,235.229 183.708,231.395 180.5,227.5C 179.833,226.5 179.167,225.5 178.5,224.5 Z"/></g>
<g><path style="opacity:1" fill="#52c199" d="M 245.5,229.5 C 243.467,235.244 239.8,239.577 234.5,242.5C 237.821,237.848 241.487,233.515 245.5,229.5 Z"/></g>
<g><path style="opacity:1" fill="#45ba91" d="M 229.5,249.5 C 227.642,254.089 224.309,258.089 219.5,261.5C 221.882,256.752 225.216,252.752 229.5,249.5 Z"/></g>
<g><path style="opacity:1" fill="#4cbd94" d="M 153.5,246.5 C 157.628,249.29 160.628,252.957 162.5,257.5C 157.731,255.282 154.731,251.615 153.5,246.5 Z"/></g>
<g><path style="opacity:1" fill="#44bb90" d="M 175.5,271.5 C 179.233,275.24 183.233,278.573 187.5,281.5C 185.173,281.753 183.173,281.086 181.5,279.5C 180.472,277.639 178.972,276.305 177,275.5C 176.209,274.255 175.709,272.922 175.5,271.5 Z"/></g>
<g><path style="opacity:1" fill="#4dc196" d="M 211.5,270.5 C 210.232,274.767 207.565,277.767 203.5,279.5C 205.942,276.271 208.608,273.271 211.5,270.5 Z"/></g>
<g><path style="opacity:1" fill="#52c299" d="M 203.5,279.5 C 203.586,280.496 203.252,281.329 202.5,282C 199.023,282.663 195.523,283.163 192,283.5C 190.014,283.431 188.514,282.765 187.5,281.5C 192.991,281.85 198.324,281.184 203.5,279.5 Z"/></g>
</svg>
