<svg width="24" height="23" viewBox="0 0 24 23" fill="none" xmlns="http://www.w3.org/2000/svg">
<path d="M13.1311 0.468419C12.8311 0.16849 12.4242 0 12 0C11.5758 0 11.1689 0.16849 10.8689 0.468419L0.234591 11.1011C0.160216 11.1755 0.101219 11.2638 0.0609682 11.361C0.020717 11.4581 0 11.5623 0 11.6675C0 11.7727 0.020717 11.8768 0.0609682 11.974C0.101219 12.0712 0.160216 12.1595 0.234591 12.2338C0.384797 12.384 0.58852 12.4684 0.800943 12.4684C0.906124 12.4684 1.01028 12.4477 1.10745 12.4075C1.20463 12.3672 1.29292 12.3082 1.3673 12.2338L2.40081 11.1987V19.6668C2.40081 20.3033 2.65364 20.9137 3.10369 21.3637C3.55374 21.8138 4.16414 22.0666 4.80061 22.0666H19.1994C19.8359 22.0666 20.4463 21.8138 20.8963 21.3637C21.3464 20.9137 21.5992 20.3033 21.5992 19.6668V11.1987L22.6327 12.2338C22.7829 12.384 22.9866 12.4684 23.1991 12.4684C23.4115 12.4684 23.6152 12.384 23.7654 12.2338C23.9156 12.0836 24 11.8799 24 11.6675C24 11.4551 23.9156 11.2513 23.7654 11.1011L19.9993 7.33664V2.06828C19.9993 1.85613 19.915 1.65266 19.765 1.50265C19.615 1.35263 19.4115 1.26835 19.1994 1.26835H17.5995C17.3874 1.26835 17.1839 1.35263 17.0339 1.50265C16.8839 1.65266 16.7996 1.85613 16.7996 2.06828V4.13691L13.1311 0.468419ZM19.9993 9.59885V19.6668C19.9993 19.879 19.915 20.0824 19.765 20.2324C19.615 20.3825 19.4115 20.4667 19.1994 20.4667H4.80061C4.58845 20.4667 4.38498 20.3825 4.23497 20.2324C4.08495 20.0824 4.00067 19.879 4.00067 19.6668V9.59885L12 1.59952L19.9993 9.59885Z" fill="#1E71A3"/>
</svg>
