<svg width="15" height="15" viewBox="0 0 15 15" fill="none" xmlns="http://www.w3.org/2000/svg">
<path d="M2.5584 15H12.4498C14.1526 15 15.0001 14.1526 15.0001 12.4742V2.52579C15.0001 0.847366 14.1526 0 12.4498 0H2.5584C0.86367 0 0 0.839197 0 2.52579V12.4742C0 14.1608 0.86367 15 2.5584 15ZM2.58284 13.6882C1.76808 13.6882 1.31181 13.2564 1.31181 12.409V2.59098C1.31181 1.74361 1.76808 1.31178 2.58284 1.31178H12.4253C13.2319 1.31178 13.6882 1.74361 13.6882 2.59098V12.409C13.6882 13.2564 13.2319 13.6882 12.4253 13.6882H2.58284ZM5.41011 11.4639C5.72788 11.4639 5.92343 11.3009 5.98861 10.9995L6.35526 9.24771H7.87072L7.53667 10.8447C7.46332 11.1787 7.69965 11.4639 8.03369 11.4639C8.36774 11.4639 8.57959 11.3009 8.63663 10.9995L9.00325 9.23954H9.85065C10.1684 9.23954 10.3965 9.00325 10.3965 8.69365C10.3965 8.41662 10.201 8.21294 9.93211 8.21294H9.22327L9.57362 6.55895H10.4373C10.7469 6.55895 10.975 6.32266 10.975 6.01305C10.975 5.73602 10.7795 5.5323 10.5106 5.5323H9.78547L10.1032 4.00871C10.1684 3.67463 9.92397 3.38947 9.58993 3.38947C9.27215 3.38947 9.06847 3.5524 9.00325 3.86204L8.6529 5.5323H7.13745L7.45519 4.00871C7.52037 3.6828 7.29225 3.38947 6.95004 3.38947C6.62413 3.38947 6.42041 3.5524 6.35526 3.86204L6.01305 5.5323H5.14938C4.83977 5.5323 4.61162 5.76863 4.61162 6.07823C4.61162 6.35526 4.8072 6.55895 5.07606 6.55895H5.79307L5.44272 8.21294H4.57091C4.26127 8.21294 4.02502 8.44922 4.02502 8.75883C4.02502 9.03586 4.22053 9.23954 4.49756 9.23954H5.23087L4.89682 10.8447C4.8316 11.1787 5.07606 11.4639 5.41011 11.4639ZM6.51007 8.31069L6.88485 6.47746H8.52254L8.13962 8.31069H6.51007Z" fill="#1E71A3"/>
</svg>
