<svg xmlns="http://www.w3.org/2000/svg" width="994" height="985" style="shape-rendering:geometricPrecision;text-rendering:geometricPrecision;image-rendering:optimizeQuality;fill-rule:evenodd;clip-rule:evenodd"><path style="opacity:.004" fill="#fff2f2" d="M-.5-.5h994v985H-.5V-.5z"/><path style="opacity:1" fill="#ff8e8c" d="M459.5 8.5c24.833.005 49.667.005 74.5 0l2 2a453.939 453.939 0 0 1 21 0c.317 1.8.984 2.134 2 1l12 2c1.016-1.134 1.683-.8 2 1h12c.317 1.8.984 2.134 2 1C640.187 25.66 691.02 43.493 739.5 69 854.604 134.822 931.77 232.322 971 361.5c41.71 166.793 7.713 316.127-102 448-91.082 101.04-204.749 157.373-341 169-159.002 4.89-292.502-50.61-400.5-166.5A3372.257 3372.257 0 0 0 99 775.5C52.339 710.402 23.172 638.569 11.5 560c.713-1.343.38-2.676-1-4a447.51 447.51 0 0 1 0-19l-2-1a1869.932 1869.932 0 0 1 0-31c-2.667-.667-2.667-1.333 0-2l-2-1a41 41 0 0 0 0-18l2-3c-.157-9.783-.157-20.116 0-31l2-3c.157-5.94.157-11.606 0-17 1.8-.317 2.134-.984 1-2 15.256-110.679 63.922-206.012 146-286 85.774-78.732 186.441-123.232 302-133.5z"/><path style="opacity:1" fill="#ff5959" d="M482.5 89.5a714.44 714.44 0 0 0 25.5 0c144.25 7.31 256.584 71.31 337 192 63.322 108.728 76.322 221.062 39 337C839.371 739.794 756.871 823.627 636.5 870c-122.21 42.341-239.877 30.341-353-36-118.732-77.284-183.066-185.617-193-325-3.796-122.082 40.204-226.749 132-314 74.719-65.556 161.386-100.722 260-105.5z"/><path style="opacity:1" fill="#d81b14" d="M472.5 171.5c87.405-5.262 165.738 19.905 235 75.5 66.674 58.682 103.674 132.016 111 220 6.891 86.694-18.943 164.86-77.5 234.5-60.555 65.278-135.222 101.278-224 108-101.385 4.067-187.718-30.599-259-104-61.802-71.786-89.302-151.952-82.5-240.5 13.216-113.851 69.216-199.185 168-256 40.867-21.12 83.867-33.62 129-37.5z"/><path style="opacity:.992" fill="#fefffe" d="M677.5 304.5c25.551-.427 39.884 11.907 43 37-.039 7.952-2.206 15.286-6.5 22A47709.767 47709.767 0 0 1 477.5 647c-8.548 5.028-17.715 8.194-27.5 9.5-9.92-.881-18.753-4.381-26.5-10.5A16267.256 16267.256 0 0 1 279 486.5c-10.624-20.099-7.124-37.266 10.5-51.5 15.061-7.809 29.727-7.142 44 2A4614.194 4614.194 0 0 1 442 557.5c2.649 4.262 6.149 5.429 10.5 3.5A35076.68 35076.68 0 0 0 655 317.5c6.206-6.735 13.706-11.068 22.5-13z"/></svg>