<svg width="15" height="15" viewBox="0 0 15 15" fill="none" xmlns="http://www.w3.org/2000/svg">
<path fill-rule="evenodd" clip-rule="evenodd" d="M9.5 2.25C10.1531 2.25 10.7087 2.6674 10.9146 3.25H11.75C12.0261 3.25 12.25 3.47385 12.25 3.75C12.25 4.02615 12.0261 4.25 11.75 4.25H10.9146C10.7087 4.8326 10.1531 5.25 9.5 5.25C8.8469 5.25 8.29128 4.8326 8.08535 4.25H3.25C2.97385 4.25 2.75 4.02615 2.75 3.75C2.75 3.47385 2.97385 3.25 3.25 3.25H8.08535C8.29128 2.6674 8.8469 2.25 9.5 2.25ZM10 3.75C10 3.47385 9.77615 3.25 9.5 3.25C9.22385 3.25 9 3.47385 9 3.75C9 4.02615 9.22385 4.25 9.5 4.25C9.77615 4.25 10 4.02615 10 3.75Z" fill="#1E71A3"/>
<path fill-rule="evenodd" clip-rule="evenodd" d="M3.25 7.75012H4.08535C4.29128 8.33272 4.8469 8.75012 5.5 8.75012C6.1531 8.75012 6.70872 8.33272 6.91465 7.75012H11.75C12.0261 7.75012 12.25 7.52627 12.25 7.25012C12.25 6.97397 12.0261 6.75012 11.75 6.75012H6.91465C6.70872 6.16752 6.1531 5.75012 5.5 5.75012C4.8469 5.75012 4.29128 6.16752 4.08535 6.75012H3.25C2.97385 6.75012 2.75 6.97397 2.75 7.25012C2.75 7.52627 2.97385 7.75012 3.25 7.75012ZM6 7.25012C6 6.97397 5.77615 6.75012 5.5 6.75012C5.22385 6.75012 5 6.97397 5 7.25012C5 7.52627 5.22385 7.75012 5.5 7.75012C5.77615 7.75012 6 7.52627 6 7.25012Z" fill="#1E71A3"/>
<path fill-rule="evenodd" clip-rule="evenodd" d="M3.25 11.2499H6.08535C6.29128 11.8325 6.8469 12.2499 7.5 12.2499C8.1531 12.2499 8.70872 11.8325 8.91465 11.2499H11.75C12.0261 11.2499 12.25 11.026 12.25 10.7499C12.25 10.4737 12.0261 10.2499 11.75 10.2499H8.91465C8.70872 9.66728 8.1531 9.24988 7.5 9.24988C6.8469 9.24988 6.29128 9.66728 6.08535 10.2499H3.25C2.97385 10.2499 2.75 10.4737 2.75 10.7499C2.75 11.026 2.97385 11.2499 3.25 11.2499ZM8 10.7499C8 10.4737 7.77615 10.2499 7.5 10.2499C7.22385 10.2499 7 10.4737 7 10.7499C7 11.026 7.22385 11.2499 7.5 11.2499C7.77615 11.2499 8 11.026 8 10.7499Z" fill="#1E71A3"/>
<path fill-rule="evenodd" clip-rule="evenodd" d="M13 15C14.1046 15 15 14.1046 15 13V2C15 0.895432 14.1046 0 13 0H2C0.895432 0 0 0.89543 0 2V13C0 14.1046 0.895432 15 2 15H13ZM14 13C14 13.5523 13.5523 14 13 14H2C1.44772 14 1 13.5523 1 13V2C1 1.44772 1.44772 1 2 1H13C13.5523 1 14 1.44772 14 2V13Z" fill="#1E71A3"/>
</svg>
