<svg width="24" height="24" viewBox="0 0 24 24" fill="none" xmlns="http://www.w3.org/2000/svg">
<g opacity="0.5" clip-path="url(#clip0_311_506)">
<path d="M11.9999 7.13098C11.3605 7.13098 10.7273 7.25692 10.1366 7.50161C9.54584 7.7463 9.00909 8.10495 8.55696 8.55708C8.10483 9.00921 7.74618 9.54596 7.50149 10.1367C7.2568 10.7274 7.13086 11.3606 7.13086 12C7.13086 12.6394 7.2568 13.2725 7.50149 13.8633C7.74618 14.454 8.10483 14.9908 8.55696 15.4429C9.00909 15.895 9.54584 16.2537 10.1366 16.4984C10.7273 16.743 11.3605 16.869 11.9999 16.869C13.2912 16.869 14.5296 16.356 15.4428 15.4429C16.3559 14.5298 16.8689 13.2913 16.8689 12C16.8689 10.7086 16.3559 9.47019 15.4428 8.55708C14.5296 7.64396 13.2912 7.13098 11.9999 7.13098ZM8.63086 12C8.63086 11.1065 8.98581 10.2495 9.61762 9.61774C10.2494 8.98593 11.1063 8.63098 11.9999 8.63098C12.8934 8.63098 13.7503 8.98593 14.3821 9.61774C15.0139 10.2495 15.3689 11.1065 15.3689 12C15.3689 12.8935 15.0139 13.7504 14.3821 14.3822C13.7503 15.014 12.8934 15.369 11.9999 15.369C11.1063 15.369 10.2494 15.014 9.61762 14.3822C8.98581 13.7504 8.63086 12.8935 8.63086 12Z" fill="#1E71A3"/>
<path d="M14.6942 2.01448C13.9037 -0.670518 10.0967 -0.670518 9.30623 2.01448L9.16523 2.49298C9.11002 2.68041 9.01357 2.85311 8.88295 2.99842C8.75233 3.14373 8.59085 3.25797 8.41034 3.33276C8.22983 3.40755 8.03487 3.441 7.83976 3.43066C7.64464 3.42032 7.45431 3.36644 7.28273 3.27298L6.84473 3.03298C4.38473 1.69498 1.69523 4.38598 3.03473 6.84448L3.27323 7.28248C3.36668 7.45407 3.42056 7.6444 3.4309 7.83951C3.44125 8.03463 3.4078 8.22959 3.333 8.41009C3.25821 8.5906 3.14397 8.75209 2.99866 8.88271C2.85335 9.01333 2.68065 9.10978 2.49323 9.16498L2.01473 9.30598C-0.670273 10.0965 -0.670273 13.9035 2.01473 14.694L2.49323 14.835C2.68065 14.8902 2.85335 14.9866 2.99866 15.1173C3.14397 15.2479 3.25821 15.4094 3.333 15.5899C3.4078 15.7704 3.44125 15.9653 3.4309 16.1604C3.42056 16.3556 3.36668 16.5459 3.27323 16.7175L3.03323 17.1555C1.69523 19.6155 4.38473 22.3065 6.84473 20.9655L7.28273 20.727C7.45431 20.6335 7.64464 20.5796 7.83976 20.5693C8.03487 20.559 8.22983 20.5924 8.41034 20.6672C8.59085 20.742 8.75233 20.8562 8.88295 21.0015C9.01357 21.1469 9.11002 21.3196 9.16523 21.507L9.30623 21.9855C10.0967 24.6705 13.9037 24.6705 14.6942 21.9855L14.8352 21.507C14.8904 21.3196 14.9869 21.1469 15.1175 21.0015C15.2481 20.8562 15.4096 20.742 15.5901 20.6672C15.7706 20.5924 15.9656 20.559 16.1607 20.5693C16.3558 20.5796 16.5461 20.6335 16.7177 20.727L17.1557 20.967C19.6157 22.3065 22.3067 19.614 20.9657 17.1555L20.7272 16.7175C20.6338 16.5459 20.5799 16.3556 20.5695 16.1604C20.5592 15.9653 20.5927 15.7704 20.6674 15.5899C20.7422 15.4094 20.8565 15.2479 21.0018 15.1173C21.1471 14.9866 21.3198 14.8902 21.5072 14.835L21.9857 14.694C24.6707 13.9035 24.6707 10.0965 21.9857 9.30598L21.5072 9.16498C21.3198 9.10978 21.1471 9.01333 21.0018 8.88271C20.8565 8.75209 20.7422 8.5906 20.6674 8.41009C20.5927 8.22959 20.5592 8.03463 20.5695 7.83951C20.5799 7.6444 20.6338 7.45407 20.7272 7.28248L20.9672 6.84448C22.3067 4.38448 19.6142 1.69498 17.1557 3.03448L16.7177 3.27298C16.5461 3.36644 16.3558 3.42032 16.1607 3.43066C15.9656 3.441 15.7706 3.40755 15.5901 3.33276C15.4096 3.25797 15.2481 3.14373 15.1175 2.99842C14.9869 2.85311 14.8904 2.68041 14.8352 2.49298L14.6942 2.01448ZM10.7447 2.43898C11.1137 1.18648 12.8867 1.18648 13.2557 2.43898L13.3967 2.91748C13.5153 3.31961 13.7223 3.69011 14.0026 4.00183C14.283 4.31355 14.6295 4.55858 15.0168 4.71895C15.4042 4.87933 15.8225 4.95098 16.2411 4.92867C16.6598 4.90635 17.0681 4.79063 17.4362 4.58998L17.8727 4.34998C19.0187 3.72748 20.2727 4.97998 19.6487 6.12748L19.4102 6.56548C19.2099 6.93362 19.0944 7.34192 19.0724 7.76047C19.0503 8.17901 19.1221 8.59719 19.2826 8.98436C19.4432 9.37153 19.6883 9.71789 20 9.99805C20.3117 10.2782 20.6822 10.4851 21.0842 10.6035L21.5612 10.7445C22.8137 11.1135 22.8137 12.8865 21.5612 13.2555L21.0827 13.3965C20.6806 13.515 20.3101 13.722 19.9984 14.0024C19.6867 14.2827 19.4416 14.6293 19.2813 15.0166C19.1209 15.4039 19.0492 15.8223 19.0715 16.2409C19.0939 16.6595 19.2096 17.0679 19.4102 17.436L19.6502 17.8725C20.2727 19.0185 19.0202 20.2725 17.8727 19.6485L17.4362 19.41C17.068 19.2094 16.6596 19.0937 16.2409 19.0715C15.8221 19.0492 15.4038 19.121 15.0164 19.2816C14.629 19.4421 14.2825 19.6873 14.0022 19.9992C13.722 20.3111 13.5151 20.6817 13.3967 21.084L13.2557 21.561C12.8867 22.8135 11.1137 22.8135 10.7447 21.561L10.6037 21.0825C10.4851 20.6806 10.2782 20.3103 9.99792 19.9987C9.71769 19.6871 9.37131 19.4422 8.98416 19.2819C8.59701 19.1215 8.17889 19.0498 7.76043 19.072C7.34197 19.0941 6.93377 19.2096 6.56573 19.41L6.12773 19.65C4.98173 20.2725 3.72773 19.02 4.35173 17.8725L4.59023 17.436C4.79115 17.0678 4.9071 16.6594 4.92957 16.2405C4.95203 15.8217 4.88044 15.4032 4.72004 15.0156C4.55965 14.6281 4.31452 14.2814 4.00264 14.001C3.69077 13.7205 3.32006 13.5135 2.91773 13.395L2.43923 13.254C1.18673 12.885 1.18673 11.112 2.43923 10.743L2.91773 10.602C3.31944 10.4833 3.68954 10.2764 4.00094 9.99626C4.31234 9.71614 4.55717 9.36992 4.71751 8.98297C4.87784 8.59601 4.94962 8.17809 4.9276 7.75981C4.90558 7.34153 4.79031 6.93347 4.59023 6.56548L4.35023 6.12748C3.72773 4.98148 4.98023 3.72748 6.12773 4.35148L6.56573 4.58998C6.93377 4.79035 7.34197 4.90584 7.76043 4.92801C8.17889 4.95018 8.59701 4.87846 8.98416 4.71811C9.37131 4.55775 9.71769 4.31282 9.99792 4.00126C10.2782 3.6897 10.4851 3.3194 10.6037 2.91748L10.7447 2.43898Z" fill="#1E71A3"/>
</g>
<defs>
<clipPath id="clip0_311_506">
<rect width="24" height="24" fill="white"/>
</clipPath>
</defs>
</svg>
