<svg width="100" height="100" viewBox="0 0 100 100" fill="none" xmlns="http://www.w3.org/2000/svg">
<circle cx="50" cy="50" r="50" fill="#FFEBD7"/>
<circle cx="50" cy="50" r="40" fill="#FFD4A9"/>
<circle cx="50" cy="50" r="30" fill="#FFB66E"/>
<path d="M64.6351 39.115C64.7515 39.2311 64.8439 39.3691 64.9069 39.5209C64.9699 39.6728 65.0023 39.8356 65.0023 40C65.0023 40.1644 64.9699 40.3272 64.9069 40.4791C64.8439 40.631 64.7515 40.7689 64.6351 40.885L47.1351 58.385C47.019 58.5014 46.8811 58.5938 46.7292 58.6568C46.5773 58.7198 46.4145 58.7522 46.2501 58.7522C46.0857 58.7522 45.9229 58.7198 45.771 58.6568C45.6192 58.5938 45.4812 58.5014 45.3651 58.385L36.6151 49.635C36.3804 49.4003 36.2485 49.0819 36.2485 48.75C36.2485 48.4181 36.3804 48.0997 36.6151 47.865C36.8498 47.6303 37.1682 47.4984 37.5001 47.4984C37.8321 47.4984 38.1504 47.6303 38.3851 47.865L46.2501 55.7325L62.8651 39.115C62.9812 38.9986 63.1192 38.9062 63.271 38.8432C63.4229 38.7802 63.5857 38.7478 63.7501 38.7478C63.9145 38.7478 64.0773 38.7802 64.2292 38.8432C64.3811 38.9062 64.519 38.9986 64.6351 39.115Z" fill="white" stroke="white" stroke-width="2"/>
</svg>
